<svg width="277" height="320" viewBox="0 0 277 320" fill="none" xmlns="http://www.w3.org/2000/svg">
<path fill-rule="evenodd" clip-rule="evenodd" d="M152.354 47.5663C165.251 61.3394 169.645 87.801 184.166 98.0584C196.726 106.93 212.163 96.9369 226.137 99.6839C247.09 103.803 294.35 90.766 287.609 118.393C276.1 165.562 192.119 156.572 200.441 204.995C210.099 261.188 289.363 228.383 314.463 274.642C326.857 297.483 290.881 330.165 270.345 333.822C242.342 338.808 216.378 280.153 190.813 296.659C168.904 310.805 201.344 395.664 177.177 393.975C149.795 392.061 168.58 295.49 141.214 293.192C109.398 290.521 103.668 401.471 74.0309 385.313C46.6776 370.401 113.679 302.08 96.7494 268.951C80.5269 237.206 31.4938 294.968 12.9325 265.754C-0.918311 243.953 59.0852 225.516 51.8673 198.309C37.8332 145.409 -40.6741 138.049 -35.7808 82.1352C-31.8186 36.8617 32.4907 94.5343 62.6086 75.5722C81.6434 63.588 72.8011 7.29122 93.2136 0.921324C115.56 -6.0522 134.249 28.2293 152.354 47.5663Z" fill="#E9AC3C" fill-opacity="0.36"/>
</svg>
